<?xml version="1.0" encoding="utf-8"?>
<!-- Generator: Adobe Illustrator 24.2.1, SVG Export Plug-In . SVG Version: 6.00 Build 0)  -->
<svg version="1.1" id="Layer_1" xmlns="http://www.w3.org/2000/svg" xmlns:xlink="http://www.w3.org/1999/xlink" x="0px" y="0px"
         viewBox="0 0 1034 1034" style="enable-background:new 0 0 1034 1034;" xml:space="preserve">
<style type="text/css">
        .st0{fill:#221F72;}
        .st1{fill:#FFFFFF;}
</style>
<g>
        <circle fill="#000000" cx="517" cy="517" r="517" shape-rendering="geometricPrecision"/>
        <circle fill="#221F72" cx="517" cy="517" r="513" shape-rendering="geometricPrecision"/>
</g>
<g>
	<path class="st1" d="M388.7,857h248.2c43.1,0,78-33.2,78-74.3V232.4c0-41-34.9-74.4-77.9-74.4H389c-43,0-78,33.3-78,74.4v550.3
		c0,41.1,34.9,74.3,78,74.3 M510.5,834.3c-19.4,0-35-15.7-35-34.9c0-19.3,15.6-35,35-35c19.3,0,34.9,15.6,34.9,35
		C545.4,818.6,529.8,834.3,510.5,834.3 M458.6,204.6h105.2c4.3,1.3,7.8,4.3,7.8,7.9c0,3.7-3.5,6.6-7.8,7.6H457.1
		c-4.3-1-7.8-4-7.8-7.6c0-3.6,3.5-6.6,7.8-6.6 M342.1,293.4c0-6.1,5.2-11.1,11.6-11.1h318.5c6.4,0,11.6,4.9,11.6,11.1v436.1
		c0,6.1-5.2,11.1-11.6,11.1H353.7c-6.4,0-11.6-5-11.6-11.1V290"/>
</g>
<g>
	<g>
		<g>
			<path class="st1" d="M515.8,380.9c-68.6,0-124.2,55.6-124.2,124.2s55.6,124.2,124.2,124.2S640,573.6,640,505
				S584.4,380.9,515.8,380.9z M498.1,559.3l-53.8-53.8l18.8-18.8l34.9,34.9l66-66l18.8,18.8L498.1,559.3z"/>
		</g>
	</g>
	<g>
	</g>
	<g>
	</g>
	<g>
	</g>
	<g>
	</g>
	<g>
	</g>
	<g>
	</g>
	<g>
	</g>
	<g>
	</g>
	<g>
	</g>
	<g>
	</g>
	<g>
	</g>
	<g>
	</g>
	<g>
	</g>
	<g>
	</g>
	<g>
	</g>
</g>
</svg>
