<?xml version="1.0" encoding="utf-8"?>
<!-- Generator: Adobe Illustrator 24.2.1, SVG Export Plug-In . SVG Version: 6.00 Build 0)  -->
<svg version="1.1" id="Layer_1" xmlns="http://www.w3.org/2000/svg" xmlns:xlink="http://www.w3.org/1999/xlink" x="0px" y="0px"
	 viewBox="0 0 1021 1020" style="enable-background:new 0 0 1021 1020;" xml:space="preserve">
<style type="text/css">
	.st0{fill:#221F72;}
	.st1{fill:#FFFFFF;}
</style>
<g>
	<path class="st0" d="M510.5,1015.5c-68.3,0-134.6-13.4-197-39.8c-60.3-25.5-114.4-62-160.8-108.4c-46.5-46.5-83-100.6-108.4-160.8
		c-26.4-62.4-39.8-128.6-39.8-197s13.4-134.6,39.8-197c25.5-60.3,62-114.4,108.4-160.8c46.5-46.5,100.6-83,160.8-108.4
		c62.4-26.4,128.6-39.8,197-39.8s134.6,13.4,197,39.8c60.3,25.5,114.4,62,160.8,108.4c46.5,46.5,83,100.6,108.4,160.8
		c26.4,62.4,39.8,128.6,39.8,197s-13.4,134.6-39.8,197c-25.5,60.3-62,114.4-108.4,160.8c-46.5,46.5-100.6,83-160.8,108.4
		C645.1,1002.1,578.8,1015.5,510.5,1015.5z"/>
	<path d="M510.5,4c68.2,0,134.4,13.4,196.8,39.7c60.2,25.5,114.3,61.9,160.7,108.3c46.4,46.4,82.9,100.5,108.3,160.7
		c26.4,62.3,39.7,128.5,39.7,196.8s-13.4,134.4-39.7,196.8c-25.5,60.2-61.9,114.3-108.3,160.7c-46.4,46.4-100.5,82.9-160.7,108.3
		c-62.3,26.4-128.5,39.7-196.8,39.7s-134.4-13.4-196.8-39.7c-60.2-25.5-114.3-61.9-160.7-108.3c-46.4-46.4-82.9-100.5-108.3-160.7
		C18.4,643.9,5,577.7,5,509.5s13.4-134.4,39.7-196.8c25.5-60.2,61.9-114.3,108.3-160.7c46.4-46.4,100.5-82.9,160.7-108.3
		C376.1,17.4,442.3,4,510.5,4 M510.5,3C230.8,3,4,229.8,4,509.5S230.8,1016,510.5,1016S1017,789.2,1017,509.5S790.2,3,510.5,3
		L510.5,3z"/>
</g>
<g id="g3015" transform="matrix(1,0,0,-1,68.338983,1285.4237)">
	<path id="path3017" class="st1" d="M255.3,746.4V547c0-7.2,2.1-13.4,6.4-18.7s9.4-7.9,15.3-7.9h130.2v159.5h86.8V520.4h130.2
		c5.9,0,11,2.6,15.3,7.9s6.4,11.5,6.4,18.7v199.4c0,0.3-0.1,0.7-0.2,1.2c-0.1,0.6-0.2,1-0.2,1.2L450.5,945.8L255.6,748.9
		C255.4,748.4,255.3,747.5,255.3,746.4z M179.7,775.1l21-30.7c1.8-2.5,4.2-4,7.1-4.6h1c2.9,0,5.3,1,7.1,2.9l234.6,239.7l234.6-239.7
		c2.7-2.2,5.4-3.2,8.1-2.9c2.9,0.6,5.3,2.1,7.1,4.6l21,30.7c1.8,2.8,2.6,6,2.4,9.8c-0.2,3.7-1.5,6.7-3.7,8.9l-243.7,248.8
		c-7.2,7.2-15.8,10.8-25.8,10.8s-18.5-3.6-25.8-10.8l-82.7-84.7v81c0,3.9-1,7.1-3.1,9.6c-2,2.5-4.6,3.7-7.8,3.7h-65.1
		c-3.2,0-5.8-1.2-7.8-3.7c-2-2.5-3.1-5.7-3.1-9.6V869.4l-74.2-75.6c-2.3-2.2-3.5-5.2-3.7-8.9C177.1,781.1,177.9,777.9,179.7,775.1z"
		/>
</g>
</svg>
