<?xml version="1.0" encoding="utf-8"?>
<!-- Generator: Adobe Illustrator 24.2.1, SVG Export Plug-In . SVG Version: 6.00 Build 0)  -->
<svg version="1.1" id="Layer_1" xmlns="http://www.w3.org/2000/svg" xmlns:xlink="http://www.w3.org/1999/xlink" x="0px" y="0px"
	 viewBox="0 0 1021 1020" style="enable-background:new 0 0 1021 1020;" xml:space="preserve">
<style type="text/css">
	.st0{fill:#221F72;}
	.st1{fill:#FFFFFF;}
</style>
<g>
	<path class="st0" d="M510.5,1015.5c-68.3,0-134.6-13.4-197-39.8c-60.3-25.5-114.4-62-160.8-108.4c-46.5-46.5-83-100.6-108.4-160.8
		c-26.4-62.4-39.8-128.6-39.8-197s13.4-134.6,39.8-197c25.5-60.3,62-114.4,108.4-160.8c46.5-46.5,100.6-83,160.8-108.4
		c62.4-26.4,128.6-39.8,197-39.8s134.6,13.4,197,39.8c60.3,25.5,114.4,62,160.8,108.4c46.5,46.5,83,100.6,108.4,160.8
		c26.4,62.4,39.8,128.6,39.8,197s-13.4,134.6-39.8,197c-25.5,60.3-62,114.4-108.4,160.8c-46.5,46.5-100.6,83-160.8,108.4
		C645.1,1002.1,578.8,1015.5,510.5,1015.5z"/>
	<path d="M510.5,4c68.2,0,134.4,13.4,196.8,39.7c60.2,25.5,114.3,61.9,160.7,108.3c46.4,46.4,82.9,100.5,108.3,160.7
		c26.4,62.3,39.7,128.5,39.7,196.8s-13.4,134.4-39.7,196.8c-25.5,60.2-61.9,114.3-108.3,160.7c-46.4,46.4-100.5,82.9-160.7,108.3
		c-62.3,26.4-128.5,39.7-196.8,39.7s-134.4-13.4-196.8-39.7c-60.2-25.5-114.3-61.9-160.7-108.3c-46.4-46.4-82.9-100.5-108.3-160.7
		C18.4,643.9,5,577.7,5,509.5s13.4-134.4,39.7-196.8c25.5-60.2,61.9-114.3,108.3-160.7c46.4-46.4,100.5-82.9,160.7-108.3
		C376.1,17.4,442.3,4,510.5,4 M510.5,3C230.8,3,4,229.8,4,509.5S230.8,1016,510.5,1016S1017,789.2,1017,509.5S790.2,3,510.5,3
		L510.5,3z"/>
</g>
<g>
	<path class="st1" d="M388.7,857h248.2c43.1,0,78-33.2,78-74.3V232.4c0-41-34.9-74.4-77.9-74.4H389c-43,0-78,33.3-78,74.4v550.3
		c0,41.1,34.9,74.3,78,74.3 M510.5,834.3c-19.4,0-35-15.7-35-34.9c0-19.3,15.6-35,35-35c19.3,0,34.9,15.6,34.9,35
		C545.4,818.6,529.8,834.3,510.5,834.3 M458.6,204.6h105.2c4.3,1.3,7.8,4.3,7.8,7.9c0,3.7-3.5,6.6-7.8,7.6H457.1
		c-4.3-1-7.8-4-7.8-7.6c0-3.6,3.5-6.6,7.8-6.6 M342.1,293.4c0-6.1,5.2-11.1,11.6-11.1h318.5c6.4,0,11.6,4.9,11.6,11.1v436.1
		c0,6.1-5.2,11.1-11.6,11.1H353.7c-6.4,0-11.6-5-11.6-11.1V290"/>
</g>
<g>
	<g>
		<g>
			<path class="st1" d="M515.8,380.9c-68.6,0-124.2,55.6-124.2,124.2s55.6,124.2,124.2,124.2S640,573.6,640,505
				S584.4,380.9,515.8,380.9z M498.1,559.3l-53.8-53.8l18.8-18.8l34.9,34.9l66-66l18.8,18.8L498.1,559.3z"/>
		</g>
	</g>
	<g>
	</g>
	<g>
	</g>
	<g>
	</g>
	<g>
	</g>
	<g>
	</g>
	<g>
	</g>
	<g>
	</g>
	<g>
	</g>
	<g>
	</g>
	<g>
	</g>
	<g>
	</g>
	<g>
	</g>
	<g>
	</g>
	<g>
	</g>
	<g>
	</g>
</g>
</svg>
