<?xml version="1.0" encoding="utf-8"?>
<!-- Generator: Adobe Illustrator 24.2.1, SVG Export Plug-In . SVG Version: 6.00 Build 0)  -->
<svg version="1.1" id="Layer_1" xmlns="http://www.w3.org/2000/svg" xmlns:xlink="http://www.w3.org/1999/xlink" x="0px" y="0px"
	 viewBox="0 0 1021 1020" style="enable-background:new 0 0 1021 1020;" xml:space="preserve">
<style type="text/css">
	.st0{fill:#221F72;}
	.st1{fill:#FFFFFF;}
	.st2{fill:#E6E6E6;}
</style>

<g>
	<g>
		<path class="st0" d="M510.5,1015.5c-68.3,0-134.6-13.4-197-39.8c-60.3-25.5-114.4-62-160.8-108.4c-46.5-46.5-83-100.6-108.4-160.8
			c-26.4-62.4-39.8-128.6-39.8-197c0-68.3,13.4-134.6,39.8-197c25.5-60.3,62-114.4,108.4-160.8c46.5-46.5,100.6-83,160.8-108.4
			c62.4-26.4,128.6-39.8,197-39.8s134.6,13.4,197,39.8c60.3,25.5,114.4,62,160.8,108.4c46.5,46.5,83,100.6,108.4,160.8
			c26.4,62.4,39.8,128.6,39.8,197c0,68.3-13.4,134.6-39.8,197c-25.5,60.3-62,114.4-108.4,160.8c-46.5,46.5-100.6,83-160.8,108.4
			C645.1,1002.1,578.8,1015.5,510.5,1015.5z"/>
		<path d="M510.5,4c68.2,0,134.4,13.4,196.8,39.7c60.2,25.5,114.3,61.9,160.7,108.3c46.4,46.4,82.9,100.5,108.3,160.7
			c26.4,62.3,39.7,128.5,39.7,196.8s-13.4,134.4-39.7,196.8c-25.5,60.2-61.9,114.3-108.3,160.7c-46.4,46.4-100.5,82.9-160.7,108.3
			c-62.3,26.4-128.5,39.7-196.8,39.7s-134.4-13.4-196.8-39.7c-60.2-25.5-114.3-61.9-160.7-108.3c-46.4-46.4-82.9-100.5-108.3-160.7
			C18.4,643.9,5,577.7,5,509.5s13.4-134.4,39.7-196.8c25.5-60.2,61.9-114.3,108.3-160.7c46.4-46.4,100.5-82.9,160.7-108.3
			C376.1,17.4,442.3,4,510.5,4 M510.5,3C230.8,3,4,229.8,4,509.5S230.8,1016,510.5,1016S1017,789.2,1017,509.5S790.2,3,510.5,3
			L510.5,3z"/>
	</g>
	<g>
		<polygon id="XMLID_56_" class="st1" points="785.9,587 764.7,587 864.3,436.5 875.5,452.7 		"/>
		<polygon id="XMLID_55_" class="st1" points="823.2,587 802.1,587 882.9,463.4 894.1,479.6 		"/>
		<path id="XMLID_54_" class="st1" d="M850.8,416.9L850.8,416.9c-0.7-1-2-3.6-4.7-3.6c-2.8,0-4,2.6-4.7,3.6L727.4,587h21.1
			l108.7-160.8L850.8,416.9z"/>
		<path id="XMLID_53_" class="st1" d="M796.6,441.9L796.6,441.9c-0.7-1-2-3.6-4.7-3.6c-2.8,0-4,2.6-4.7,3.6h0L690,587h21.1
			l91.8-135.6L796.6,441.9z"/>
		<path id="XMLID_15_" class="st1" d="M796.6,441.9L796.6,441.9c-0.7-1-2-3.6-4.7-3.6c-2.8,0-4,2.6-4.7,3.6l-6.4,9.6L872.4,587h21.1
			L796.6,441.9z"/>
		<path id="XMLID_14_" class="st1" d="M850.7,416.9L850.7,416.9c-0.7-1-2-3.6-4.7-3.6c-2.8,0-4,2.6-4.7,3.6l-6.4,9.6L947.1,587h21.1
			L850.7,416.9z"/>
		<polygon id="XMLID_13_" class="st2" points="875.5,452.8 864.3,436.5 853.4,453 864.7,469 		"/>
		<polygon id="XMLID_12_" class="st2" points="894.1,479.6 882.9,463.4 872.2,479.8 883.4,495.8 		"/>
		<polygon id="XMLID_11_" class="st1" points="909.7,587 930.8,587 828.4,436.3 817.3,452.7 		"/>
		<path id="XMLID_9_" class="st2" d="M850.7,416.9L850.7,416.9c-0.7-1-2-3.6-4.7-3.6c-0.4,0-0.7,0-1,0.1c-2.1,0.5-3.1,2.6-3.7,3.5h0
			l-5.8,8.6l-0.6,0.9l11.2,16.1l11-16.3L850.7,416.9z"/>
		<polygon id="XMLID_7_" class="st2" points="828.4,436.3 817.3,452.7 828.4,468.8 839.4,452.5 		"/>
		<polygon id="XMLID_6_" class="st2" points="846.9,495.7 857.7,479.4 846.7,463.2 835.8,479.6 		"/>
		<polygon id="XMLID_5_" class="st2" points="865.6,522.8 876.2,506.7 865.2,490.4 854.5,506.8 		"/>
		<path id="XMLID_4_" class="st1" d="M796.6,441.9c-0.7-1-2-3.6-4.7-3.6c-0.4,0-0.7,0-1,0.1c-2.1,0.5-3.1,2.6-3.7,3.5h0l-6.4,9.6
			l11.1,16.4l11.1-16.4l-0.1-0.1L796.6,441.9L796.6,441.9z"/>
		<polygon id="XMLID_3_" class="st2" points="821.4,479.1 810.5,462.8 799.5,479.2 810.4,495.4 		"/>
		<polygon id="XMLID_2_" class="st2" points="839.7,506.4 828.8,490.2 818,506.5 828.9,522.6 		"/>
		<polygon id="XMLID_1_" class="st2" points="858.1,534.1 847.3,517.8 836.6,534.1 847.5,550.2 		"/>
	</g>
	<g>
		<g>
			<path class="st1" d="M338.3,613.1c25.9,20.4,68.3,43,114.5,51.1c49.6,8.8,79.6-7.2,85.1-38.7c5.2-29.4-14.6-50.7-68.2-80.9
				c-74.7-42.3-119.2-95-106.9-164.8c14.4-81.5,93.7-131.4,206.1-111.6c54.5,9.6,91.9,27.4,117.8,45.6l-39.2,82.4
				c-17.4-12.4-49.4-32.1-95.8-40.3c-47.1-8.3-73.4,9.5-77.7,34c-5.4,30.4,18.8,48.4,76.6,82.8c79,46.5,110.5,97.4,98.6,164.9
				c-14.1,79.8-87.2,137.5-218.8,114.3c-54.2-9.6-105.8-33.8-129.8-53.5L338.3,613.1z"/>
		</g>
	</g>
	<polygon class="st1" points="208.9,605.3 380.7,577.5 303.1,751.6 	"/>
	<polygon class="st1" points="779.2,405.7 607.5,433.5 685.1,259.4 	"/>
	<g id="g3015" transform="matrix(1,0,0,-1,68.338983,1285.4237)">
		<path id="path3017" class="st1" d="M41.7,805.5v-75.3c0-2.7,0.8-5.1,2.4-7.1c1.6-2,3.5-3,5.8-3h49.2v60.2h32.8v-60.2H181
			c2.2,0,4.1,1,5.8,3c1.6,2,2.4,4.3,2.4,7.1v75.3c0,0.1,0,0.3-0.1,0.5c0,0.2-0.1,0.4-0.1,0.5l-73.6,74.4l-73.6-74.4
			C41.8,806.2,41.7,805.9,41.7,805.5z M13.2,816.3l7.9-11.6c0.7-0.9,1.6-1.5,2.7-1.7h0.4c1.1,0,2,0.4,2.7,1.1l88.6,90.5l88.6-90.5
			c1-0.8,2-1.2,3.1-1.1c1.1,0.2,2,0.8,2.7,1.7l7.9,11.6c0.7,1,1,2.3,0.9,3.7c-0.1,1.4-0.6,2.5-1.4,3.4l-92,94
			c-2.7,2.7-6,4.1-9.7,4.1s-7-1.4-9.7-4.1l-31.2-32v30.6c0,1.5-0.4,2.7-1.2,3.6c-0.8,0.9-1.7,1.4-2.9,1.4H45.8
			c-1.2,0-2.2-0.5-2.9-1.4s-1.2-2.1-1.2-3.6v-64l-28-28.6c-0.9-0.8-1.3-2-1.4-3.4C12.2,818.6,12.5,817.4,13.2,816.3z"/>
	</g>
</g>
</svg>
