<?xml version="1.0" encoding="utf-8"?>
<!-- Generator: Adobe Illustrator 24.2.1, SVG Export Plug-In . SVG Version: 6.00 Build 0)  -->
<svg version="1.1" id="Layer_1" xmlns="http://www.w3.org/2000/svg" xmlns:xlink="http://www.w3.org/1999/xlink" x="0px" y="0px"
	 viewBox="0 0 1038 1026" style="enable-background:new 0 0 1038 1026;" xml:space="preserve">
<style type="text/css">
	.st0{fill:#221F72;}
	.st1{fill:#FFFFFF;}
</style>
<g>
	<path class="st0" d="M517.5,1021.5c-68.3,0-134.6-13.4-197-39.8c-60.3-25.5-114.4-62-160.8-108.4c-46.5-46.5-83-100.6-108.4-160.8
		c-26.4-62.4-39.8-128.6-39.8-197s13.4-134.6,39.8-197c25.5-60.3,62-114.4,108.4-160.8c46.5-46.5,100.6-83,160.8-108.4
		c62.4-26.4,128.6-39.8,197-39.8s134.6,13.4,197,39.8c60.3,25.5,114.4,62,160.8,108.4c46.5,46.5,83,100.6,108.4,160.8
		c26.4,62.4,39.8,128.6,39.8,197s-13.4,134.6-39.8,197c-25.5,60.3-62,114.4-108.4,160.8c-46.5,46.5-100.6,83-160.8,108.4
		C652.1,1008.1,585.8,1021.5,517.5,1021.5z"/>
	<path d="M517.5,10c68.2,0,134.4,13.4,196.8,39.7c60.2,25.5,114.3,61.9,160.7,108.3c46.4,46.4,82.9,100.5,108.3,160.7
		c26.4,62.3,39.7,128.5,39.7,196.8s-13.4,134.4-39.7,196.8c-25.5,60.2-61.9,114.3-108.3,160.7c-46.4,46.4-100.5,82.9-160.7,108.3
		c-62.3,26.4-128.5,39.7-196.8,39.7s-134.4-13.4-196.8-39.7c-60.2-25.5-114.3-61.9-160.7-108.3c-46.4-46.4-82.9-100.5-108.3-160.7
		C25.4,649.9,12,583.7,12,515.5s13.4-134.4,39.7-196.8c25.5-60.2,61.9-114.3,108.3-160.7c46.4-46.4,100.5-82.9,160.7-108.3
		C383.1,23.4,449.3,10,517.5,10 M517.5,9C237.8,9,11,235.8,11,515.5S237.8,1022,517.5,1022S1024,795.2,1024,515.5S797.2,9,517.5,9
		L517.5,9z"/>
</g>
<g>
	<rect x="444.9" y="260" class="st1" width="151.2" height="511"/>
	<rect x="444.9" y="260" transform="matrix(6.123234e-17 -1 1 6.123234e-17 5 1036)" class="st1" width="151.2" height="511"/>
</g>
</svg>
